<?xml version="1.0" encoding="utf-8"?>
<!-- Generator: Adobe Illustrator 23.1.1, SVG Export Plug-In . SVG Version: 6.00 Build 0)  -->
<svg version="1.1" id="Layer_1" xmlns="http://www.w3.org/2000/svg" xmlns:xlink="http://www.w3.org/1999/xlink" x="0px" y="0px"
	 viewBox="0 0 267 108" style="enable-background:new 0 0 267 108;" xml:space="preserve">
<style type="text/css">
	.st0{fill-rule:evenodd;clip-rule:evenodd;fill:#CF4044;}
	.st1{fill:#FFFFFF;}
	.st2{fill:#CF4044;}
</style>
<g id="sports_canada">
	<path id="sports" class="st0" d="M136.8,78.5h11.7l4.6-19c0.7-2.6,1.4-4.5,2.4-5.4c2.4-2.2,8.8-1.8,8.8-1.8l2.6-10.7
		c-4.1,0-10.4-0.1-14.3,1c-2.3,0.6-4.6,2.4-6,3.8c-2.5,2.6-4,7.9-4,7.9L136.8,78.5L136.8,78.5z M35.5,51.1h42.7
		c2.5,0.1,4.5,1,5.5,2.3c1.1,1.6,2.3,3.9,0.5,8.4c-2,4.7-5.5,6.2-9.2,6.3h-7.6l3.1-13.2H58.7L48.2,99.2h11.7l4.9-20.6
		c0,0,3.4,0,7.8,0c3.4-0.1,7.4-0.5,11.2-2.4c4.1-2.1,6.9-5.7,8.6-8.9c1.6-2.9,2.7-7.7,2.9-10.4c0.2-2.3,0.5-6.2-2.3-10
		c-1.3-1.7-4.1-3.8-7-4.5c-3.1-0.7-7.5-0.8-7.5-0.8H34c-6.9,0.1-10.5,2.4-12.5,4.5c-2.2,2.3-3.3,5.4-3.3,8.1c0,2.6,0.7,5.3,2.2,6.9
		c1.4,1.5,3.6,3.1,8.1,3.4h7.8c0,0,1.1,0,1.7,0.3c0.6,0.3,1,1,0.9,1.7c-0.1,0.9-0.4,2-3.3,2.1H13.3l-3.7,9.7h26.7
		c3.5,0,10.1-0.7,13.1-5.9c1.1-1.9,2.1-5.5,2.1-8.2c0-2.7-0.9-4.5-1.4-5.4c-0.7-1.2-2.1-2.6-4.8-3.5c-1.4-0.5-4.5-0.6-4.5-0.6h-7.4
		c-1.5,0-2.6-0.4-2.4-1.9c0.1-0.8,0.7-1.5,1.6-1.7C33.1,51.1,35.5,51.1,35.5,51.1L35.5,51.1z M120.2,49.4c-2.9,0-5.4,1.1-7.9,3.5
		c-2.3,2.3-3.6,5.8-3.8,8.8c-0.2,1.9,0.4,4.6,1.7,6.2c1.3,1.6,3.8,2.8,6.2,2.7c3.6-0.1,6.1-1.2,8.1-3.4c2.3-2.6,3.9-6.4,3.8-10.1
		c-0.1-1.9-0.5-3.9-2.2-5.6C124.3,49.9,122,49.3,120.2,49.4l1.5-8.7c4.9-0.1,10.2,1.3,13.6,4.6c3.4,3.3,4.1,7.6,4.1,11.2
		c-0.1,4.5-1.6,10.6-7.1,16.5c-4.8,5.2-13.2,7.2-19,7c-5.8-0.3-10.1-2.1-13.3-5.4c-2.8-2.9-3.8-6.2-3.8-10.4c0-3.7,1.2-8.5,4.8-13.3
		c4.2-5.6,12.2-10.1,20.7-10.2L120.2,49.4z M172.6,31h11.8l-2.6,10.7h9l-2.4,10.4h-9l-2.7,11.7c-0.4,2.4,0,3.6,1.3,4.4
		c0.6,0.3,2.4,0.5,2.4,0.5H206c2.8,0,4.9-0.3,5-2.2c0.1-1.9-2.3-1.9-2.3-1.9h-7.2c-3.8-0.2-7-1.2-8.5-2.9c-1.3-1.4-2.5-3.5-2.4-7.5
		c0.1-4.6,2.5-7.8,3.6-8.8c1-1,4.9-3.9,10.5-3.8H231l-3.6,9.4h-21.7c-1.4,0-2.1,0.3-2.5,0.8c-0.4,0.5-0.6,1.4-0.3,2
		c0.3,0.6,0.9,0.9,2.8,1h6.8c3.5,0.2,6.3,0.7,8,2.2c1.6,1.3,3.1,3,3.1,7.4c0,5-2.5,8.2-4.1,9.9c-2.1,2.1-4.9,3.6-13.5,4.1h-31.5
		c-3.4,0-6.2,0.1-8.8-2.9c-2.6-3-1.7-6.7-1.5-8.8L172.6,31L172.6,31z"/>
	<g id="flag">
		<rect x="214" y="7.1" class="st1" width="45.6" height="21.7"/>
		<g>
			<path class="st2" d="M224.4,28.8V7.1H214v21.7H224.4z M259.6,28.8V7.1h-10.4v21.7H259.6z M236.7,27.9h-1v-4.3l-4.6,0.4l0.9-1.7
				l-5.1-3.7l1.3-0.8l-1.3-3.6l2.8,0.7l1-1.4l3.5,3.5l-1.9-6.8l2.2,1.3l2-3.6l2,3.6l2.3-1.3l-1.9,6.8l3.6-3.5l1,1.4l2.7-0.7
				l-1.3,3.6l1.4,0.8l-5.1,3.7l0.9,1.7l-4.7-0.4v4.3H236.7z"/>
		</g>
	</g>
</g>
</svg>
